<?xml version="1.0" encoding="UTF-8"?>
<svg width="40px" height="40px" viewBox="0 0 40 40" version="1.1" xmlns="http://www.w3.org/2000/svg" xmlns:xlink="http://www.w3.org/1999/xlink">
    <!-- Generator: Sketch 44.1 (41455) - http://www.bohemiancoding.com/sketch -->
    <title>chrome</title>
    <desc>Created with Sketch.</desc>
    <defs></defs>
    <g id="Page-1" stroke="none" stroke-width="1" fill="none" fill-rule="evenodd">
        <g id="Desktop-HD-Copy" transform="translate(-555.000000, -462.000000)" fill-rule="nonzero" fill="#FFFFFF">
            <g id="button" transform="translate(524.000000, 452.000000)">
                <g id="chrome" transform="translate(31.000000, 10.000000)">
                    <path d="M12.5253906,20.0014062 C12.5253906,24.1228125 15.8784375,27.475625 20,27.475625 C24.1213281,27.475625 27.4740625,24.1227344 27.4740625,20.0014062 C27.4740625,15.88 24.12125,12.5269531 20,12.5269531 C15.8784375,12.526875 12.5253906,15.8799219 12.5253906,20.0014062 Z" id="Shape"></path>
                    <path d="M37.2108594,10.1351562 C37.2690625,10.0327344 37.2680469,9.90695312 37.2078125,9.80554688 C35.4667969,6.87335938 32.9892187,4.4171875 30.0428125,2.70273438 C27.0061719,0.935546875 23.5332812,0.001484375 20,0.001484375 C13.8852344,0.001484375 8.18664063,2.745625 4.36523438,7.53023438 C4.2809375,7.63570313 4.26992188,7.781875 4.33742188,7.89875 L9.96757813,17.6502344 C10.0265625,17.7525 10.1354688,17.8141406 10.2514063,17.8141406 C10.2660938,17.8141406 10.2810156,17.813125 10.2958594,17.8110938 C10.4278125,17.793125 10.5357031,17.6971094 10.5690625,17.5682031 C11.6792188,13.2667188 15.5574219,10.2625 20,10.2625 C20.2757031,10.2625 20.5603906,10.2750781 20.8465625,10.2994531 C20.8558594,10.3003906 20.8653125,10.3007813 20.8746094,10.3007813 L36.9258594,10.3007813 C37.0438281,10.3009375 37.1526562,10.2377344 37.2108594,10.1351562 Z" id="Shape"></path>
                    <path d="M22.9553906,29.4997656 C22.8739844,29.3944531 22.7372656,29.3492187 22.6083594,29.3848438 C21.7615625,29.620625 20.8840625,29.7401563 20,29.7401563 C16.2438281,29.7401563 12.781875,27.5371094 11.1802344,24.1278125 C11.1763281,24.1194531 11.1719531,24.11125 11.1673437,24.103125 L3.13585937,10.1925781 C3.07734375,10.0909375 2.9690625,10.0286719 2.85195312,10.0286719 C2.85140625,10.0286719 2.85078125,10.0286719 2.85023437,10.0286719 C2.7325,10.0292969 2.62398437,10.0929688 2.56632812,10.1954687 C0.8875,13.1744531 0,16.5653125 0,20.0014063 C0,24.8217188 1.73898437,29.4778906 4.89664062,33.1121094 C8.02296875,36.7101563 12.3269531,39.0780469 17.0160937,39.7796875 C17.0323437,39.7821875 17.0485937,39.7832031 17.0647656,39.7832031 C17.1805469,39.7832031 17.2894531,39.7215625 17.3485937,39.6192969 L22.9802344,29.8648438 C23.0467969,29.7492969 23.0369531,29.6050781 22.9553906,29.4997656 Z" id="Shape"></path>
                    <path d="M38.3180469,12.4885938 L27.0427344,12.4885938 C26.9094531,12.4885938 26.7894531,12.5692188 26.7392969,12.6925 C26.6889062,12.8157813 26.7182031,12.9574219 26.8132812,13.0505469 C28.6998437,14.9 29.7388281,17.3684375 29.7388281,20.0013281 C29.7388281,21.9945313 29.1374219,23.9126563 27.9994531,25.5485938 C27.9942187,25.5561719 27.989375,25.5639063 27.9847656,25.5719531 L19.9392969,39.5067187 C19.8803906,39.60875 19.8807812,39.7345312 19.9402344,39.8363281 C19.9991406,39.9369531 20.1069531,39.9985937 20.2232812,39.9985937 C20.2244531,39.9985937 20.2257812,39.9985937 20.2269531,39.9985937 C25.5214062,39.9396094 30.4896094,37.8332031 34.2163281,34.0678125 C37.9459375,30.2992187 40,25.3036719 40,20.0014062 C40,17.4811719 39.5367969,15.0235937 38.6232031,12.6967187 C38.5739062,12.5710937 38.4528906,12.4885938 38.3180469,12.4885938 Z" id="Shape"></path>
                </g>
            </g>
        </g>
    </g>
</svg>